<?xml version="1.0" encoding="utf-8"?>
<!-- Generator: Adobe Illustrator 23.0.3, SVG Export Plug-In . SVG Version: 6.00 Build 0)  -->
<svg version="1.1" xmlns="http://www.w3.org/2000/svg" xmlns:xlink="http://www.w3.org/1999/xlink" x="0px" y="0px" width="248.7px"
	 height="127.4px" viewBox="0 0 248.7 127.4" style="enable-background:new 0 0 248.7 127.4;" xml:space="preserve">
<g id="Layer_1">
</g>
<g id="Layer_2">
</g>
<g id="Layer_3">
	<g>
		<path d="M107.3,77.5c0.4-0.5,0.6-1.1,0.6-1.9c0-1.1-0.3-2-1-2.5c-0.7-0.6-1.7-0.9-3-0.9h-3.8v11.4h1.5V79h2.7l2.5,4.6h1.6v-0.1
			l-2.7-4.8C106.4,78.4,107,78.1,107.3,77.5z M105.7,77.2c-0.4,0.4-1,0.6-1.8,0.6h-2.3v-4.3h2.3c0.8,0,1.4,0.2,1.8,0.6
			c0.4,0.4,0.6,0.9,0.6,1.6C106.4,76.3,106.2,76.8,105.7,77.2z"/>
		<path d="M116.5,79.2c0-1.3-0.3-2.4-0.9-3.1S114.1,75,113,75c-0.7,0-1.3,0.2-1.9,0.6s-1,0.9-1.3,1.5s-0.5,1.4-0.5,2.2v0.3
			c0,1.3,0.4,2.3,1.1,3s1.7,1.1,2.8,1.1c1.4,0,2.5-0.5,3.2-1.6l-0.9-0.7c-0.3,0.3-0.6,0.6-0.9,0.8s-0.8,0.3-1.3,0.3
			c-0.7,0-1.3-0.3-1.8-0.8s-0.7-1.2-0.7-2h5.7V79.2z M115,78.6h-4.2c0.1-0.8,0.3-1.4,0.7-1.8s0.9-0.6,1.5-0.6c0.6,0,1.1,0.2,1.4,0.6
			s0.6,1,0.6,1.7V78.6z"/>
		<path d="M119.9,77c0.4-0.5,1-0.8,1.7-0.8c0.5,0,1,0.2,1.4,0.5s0.6,0.8,0.6,1.3h1.4c0-0.9-0.4-1.6-1-2.2s-1.4-0.9-2.4-0.9
			c-0.8,0-1.4,0.2-2,0.5s-1,0.9-1.3,1.5s-0.5,1.4-0.5,2.2v0.2c0,1.3,0.3,2.4,1,3.2s1.6,1.2,2.7,1.2c0.6,0,1.1-0.1,1.6-0.4
			s0.9-0.6,1.2-1s0.5-0.9,0.5-1.4h-1.4c0,0.5-0.3,0.9-0.6,1.2s-0.8,0.5-1.4,0.5c-0.7,0-1.3-0.3-1.7-0.8s-0.6-1.3-0.6-2.2v-0.3
			C119.3,78.3,119.5,77.5,119.9,77z"/>
		<path d="M130.1,83.8c0.8,0,1.4-0.2,2-0.5s1-0.9,1.4-1.5c0.3-0.7,0.5-1.4,0.5-2.2v-0.1c0-1.3-0.4-2.4-1.1-3.2S131.2,75,130,75
			c-0.7,0-1.4,0.2-2,0.5c-0.6,0.4-1,0.9-1.4,1.5c-0.3,0.7-0.5,1.4-0.5,2.2v0.1c0,1.3,0.4,2.4,1.1,3.2S128.9,83.8,130.1,83.8z
			 M128.3,77.1c0.4-0.6,1-0.9,1.7-0.9c0.7,0,1.3,0.3,1.8,0.9c0.4,0.6,0.7,1.3,0.7,2.3c0,1-0.2,1.8-0.6,2.4c-0.4,0.6-1,0.9-1.8,0.9
			c-0.7,0-1.3-0.3-1.7-0.9c-0.4-0.6-0.7-1.3-0.7-2.3C127.7,78.4,127.9,77.6,128.3,77.1z"/>
		<path d="M142.5,75.2h-1.3l-0.1,0.9c-0.6-0.7-1.4-1.1-2.4-1.1c-1,0-1.8,0.4-2.4,1.2s-0.9,1.8-0.9,3.1c0,1.4,0.3,2.5,0.9,3.3
			s1.4,1.2,2.4,1.2c1,0,1.8-0.3,2.4-1v0.7c0,0.7-0.2,1.3-0.6,1.7s-0.9,0.6-1.6,0.6c-0.9,0-1.7-0.4-2.3-1.1l-0.8,0.9
			c0.3,0.5,0.8,0.8,1.3,1.1s1.2,0.4,1.8,0.4c1.1,0,2-0.3,2.6-0.9s1-1.5,1-2.6V75.2z M141,81.3c-0.4,0.8-1.1,1.2-2,1.2
			c-0.7,0-1.2-0.3-1.6-0.8s-0.6-1.3-0.6-2.2c0-1.1,0.2-1.9,0.6-2.4s0.9-0.8,1.6-0.8c0.9,0,1.5,0.4,2,1.2V81.3z"/>
		<path d="M151.3,83.6V78c0-2-0.9-3-2.7-3c-1,0-1.9,0.4-2.5,1.2l0-1.1h-1.4v8.5h1.4v-6c0.2-0.4,0.5-0.7,0.8-1
			c0.4-0.2,0.8-0.4,1.2-0.4c0.6,0,1,0.1,1.3,0.4s0.4,0.7,0.4,1.4v5.6H151.3z"/>
		<path d="M154.9,72.3c-0.1-0.2-0.4-0.2-0.6-0.2s-0.5,0.1-0.6,0.2c-0.1,0.2-0.2,0.4-0.2,0.6s0.1,0.4,0.2,0.6
			c0.1,0.2,0.4,0.2,0.6,0.2s0.5-0.1,0.6-0.2c0.1-0.2,0.2-0.4,0.2-0.6S155,72.5,154.9,72.3z"/>
		<rect x="153.5" y="75.2" width="1.4" height="8.5"/>
		<polygon points="156.6,83.6 163.3,83.6 163.3,82.5 158.4,82.5 163.1,76.2 163.1,75.2 156.7,75.2 156.7,76.4 161.3,76.4 
			156.6,82.6 		"/>
		<path d="M168,75c-0.7,0-1.3,0.2-1.9,0.6s-1,0.9-1.3,1.5s-0.5,1.4-0.5,2.2v0.3c0,1.3,0.4,2.3,1.1,3s1.7,1.1,2.8,1.1
			c1.4,0,2.5-0.5,3.2-1.6l-0.9-0.7c-0.3,0.3-0.6,0.6-0.9,0.8s-0.8,0.3-1.3,0.3c-0.7,0-1.3-0.3-1.8-0.8s-0.7-1.2-0.7-2h5.7v-0.6
			c0-1.3-0.3-2.4-0.9-3.1S169.1,75,168,75z M170,78.6h-4.2c0.1-0.8,0.3-1.4,0.7-1.8s0.9-0.6,1.5-0.6c0.6,0,1.1,0.2,1.4,0.6
			s0.6,1,0.6,1.7V78.6z"/>
		<path d="M180.5,83.8c0.5,0,1.1-0.1,1.6-0.3s1-0.4,1.4-0.8l0.8,0.9h1.7l-1.6-1.9c0.6-0.9,1-2,1-3.3h-1.3c0,0.8-0.2,1.6-0.5,2.3
			l-2.5-3l0.8-0.6c0.6-0.4,1-0.8,1.2-1.2s0.3-0.8,0.3-1.3c0-0.7-0.3-1.3-0.8-1.7s-1.2-0.7-1.9-0.7c-0.9,0-1.6,0.2-2.1,0.7
			s-0.8,1.2-0.8,2c0,0.4,0.1,0.7,0.3,1.1s0.5,0.9,1,1.5c-0.9,0.6-1.4,1.1-1.7,1.6s-0.5,1-0.5,1.5c0,1,0.3,1.7,1,2.3
			S179.3,83.8,180.5,83.8z M179.5,73.7c0.2-0.3,0.6-0.4,1-0.4c0.4,0,0.7,0.1,1,0.3s0.4,0.5,0.4,0.9c0,0.3-0.1,0.6-0.2,0.8
			s-0.4,0.5-0.7,0.7l-0.9,0.6c-0.6-0.8-0.9-1.4-0.9-1.9C179.1,74.4,179.3,74,179.5,73.7z M179.5,78.6l0.3-0.2l2.8,3.3
			c-0.6,0.6-1.3,0.9-2.1,0.9c-0.7,0-1.2-0.2-1.6-0.6s-0.6-0.9-0.6-1.5C178.2,79.9,178.7,79.2,179.5,78.6z"/>
		<polygon points="198.4,73.5 198.4,72.3 191.2,72.3 191.2,83.6 198.4,83.6 198.4,82.4 192.7,82.4 192.7,78.4 197.6,78.4 
			197.6,77.1 192.7,77.1 192.7,73.5 		"/>
		<polygon points="204.6,75.2 202.5,81.7 200.4,75.2 198.9,75.2 202,83.6 203.1,83.6 206.1,75.2 		"/>
		<path d="M212.5,83.6h1.5v-0.1c-0.2-0.5-0.3-1.1-0.3-1.9v-3.9c0-0.9-0.3-1.5-0.9-2c-0.6-0.5-1.3-0.7-2.3-0.7
			c-0.6,0-1.2,0.1-1.7,0.3c-0.5,0.2-0.9,0.5-1.2,0.9c-0.3,0.4-0.4,0.8-0.4,1.2h1.5c0-0.4,0.2-0.7,0.5-0.9c0.3-0.3,0.8-0.4,1.3-0.4
			c0.6,0,1,0.1,1.3,0.4c0.3,0.3,0.5,0.7,0.5,1.2v0.7h-1.4c-1.2,0-2.2,0.2-2.8,0.7c-0.7,0.5-1,1.2-1,2.1c0,0.7,0.3,1.3,0.8,1.8
			c0.5,0.5,1.2,0.7,2.1,0.7c0.9,0,1.7-0.3,2.4-1C212.3,83.2,212.4,83.5,212.5,83.6z M212.2,81.3c-0.2,0.4-0.5,0.7-0.9,0.9
			s-0.8,0.4-1.3,0.4c-0.5,0-0.9-0.1-1.2-0.4c-0.3-0.3-0.5-0.6-0.5-1.1c0-1,0.9-1.6,2.7-1.6h1.1V81.3z"/>
		<rect x="215.9" y="71.6" width="1.4" height="12"/>
		<path d="M224.8,81.3c-0.4,0.8-1.1,1.2-2.2,1.2c-1,0-1.6-0.6-1.6-1.9v-5.5h-1.4v5.5c0,1,0.2,1.8,0.7,2.3s1.2,0.8,2.1,0.8
			c1.1,0,1.9-0.3,2.5-1l0,0.8h1.4v-8.5h-1.4V81.3z"/>
		<path d="M234.8,77.8c0-0.9-0.3-1.5-0.9-2c-0.6-0.5-1.3-0.7-2.3-0.7c-0.6,0-1.2,0.1-1.7,0.3c-0.5,0.2-0.9,0.5-1.2,0.9
			c-0.3,0.4-0.4,0.8-0.4,1.2h1.5c0-0.4,0.2-0.7,0.5-0.9c0.3-0.3,0.8-0.4,1.3-0.4c0.6,0,1,0.1,1.3,0.4c0.3,0.3,0.5,0.7,0.5,1.2v0.7
			h-1.4c-1.2,0-2.2,0.2-2.8,0.7c-0.7,0.5-1,1.2-1,2.1c0,0.7,0.3,1.3,0.8,1.8c0.5,0.5,1.2,0.7,2.1,0.7c0.9,0,1.7-0.3,2.4-1
			c0.1,0.4,0.1,0.7,0.2,0.9h1.5v-0.1c-0.2-0.5-0.3-1.1-0.3-1.9V77.8z M233.3,81.3c-0.2,0.4-0.5,0.7-0.9,0.9s-0.8,0.4-1.3,0.4
			c-0.5,0-0.9-0.1-1.2-0.4c-0.3-0.3-0.5-0.6-0.5-1.1c0-1,0.9-1.6,2.7-1.6h1.1V81.3z"/>
		<path d="M239.2,82.3c-0.1-0.2-0.2-0.4-0.2-0.8v-5.2h1.6v-1.1H239v-2h-1.4v2H236v1.1h1.5v5.2c0,0.7,0.2,1.3,0.5,1.7
			s0.8,0.6,1.5,0.6c0.4,0,0.7-0.1,1.1-0.2v-1.2c-0.3,0.1-0.5,0.1-0.7,0.1C239.6,82.6,239.3,82.5,239.2,82.3z"/>
		<path d="M245.3,75c-0.7,0-1.3,0.2-1.9,0.6s-1,0.9-1.3,1.5s-0.5,1.4-0.5,2.2v0.3c0,1.3,0.4,2.3,1.1,3s1.7,1.1,2.8,1.1
			c1.4,0,2.5-0.5,3.2-1.6l-0.9-0.7c-0.3,0.3-0.6,0.6-0.9,0.8s-0.8,0.3-1.3,0.3c-0.7,0-1.3-0.3-1.8-0.8s-0.7-1.2-0.7-2h5.7v-0.6
			c0-1.3-0.3-2.4-0.9-3.1S246.4,75,245.3,75z M247.3,78.6h-4.2c0.1-0.8,0.3-1.4,0.7-1.8s0.9-0.6,1.5-0.6c0.6,0,1.1,0.2,1.4,0.6
			s0.6,1,0.6,1.7V78.6z"/>
		<path d="M106.2,97.9c-0.5-0.3-1.3-0.6-2.2-0.9c-0.9-0.3-1.6-0.6-2-0.9c-0.4-0.3-0.6-0.7-0.6-1.2c0-0.6,0.2-1,0.6-1.4
			s1-0.5,1.7-0.5c0.8,0,1.4,0.2,1.9,0.6s0.7,0.9,0.7,1.6h1.5c0-0.6-0.2-1.2-0.5-1.7s-0.8-0.9-1.4-1.2c-0.6-0.3-1.3-0.5-2.1-0.5
			c-1.1,0-2.1,0.3-2.8,0.9c-0.7,0.6-1.1,1.3-1.1,2.2c0,0.8,0.3,1.5,0.9,2s1.5,1,2.8,1.4c1,0.3,1.7,0.6,2.1,0.9s0.6,0.7,0.6,1.3
			s-0.2,1-0.6,1.3s-1,0.5-1.8,0.5c-0.8,0-1.5-0.2-2-0.6s-0.8-0.9-0.8-1.6h-1.5c0,0.7,0.2,1.3,0.6,1.8s0.9,0.9,1.6,1.2
			c0.7,0.3,1.4,0.4,2.2,0.4c1.2,0,2.2-0.3,2.9-0.8s1.1-1.3,1.1-2.2c0-0.6-0.1-1.1-0.4-1.5S106.7,98.2,106.2,97.9z"/>
		<path d="M111,92.1c-0.1-0.2-0.4-0.2-0.6-0.2s-0.5,0.1-0.6,0.2s-0.2,0.4-0.2,0.6s0.1,0.4,0.2,0.6s0.4,0.2,0.6,0.2s0.5-0.1,0.6-0.2
			s0.2-0.4,0.2-0.6S111.1,92.3,111,92.1z"/>
		<rect x="109.6" y="95" width="1.4" height="8.5"/>
		<path d="M120.1,103.2V95h-1.3l-0.1,0.9c-0.6-0.7-1.4-1.1-2.4-1.1c-1,0-1.8,0.4-2.4,1.2s-0.9,1.8-0.9,3.1c0,1.4,0.3,2.5,0.9,3.3
			s1.4,1.2,2.4,1.2c1,0,1.8-0.3,2.4-1v0.7c0,0.7-0.2,1.3-0.6,1.7s-0.9,0.6-1.6,0.6c-0.9,0-1.7-0.4-2.3-1.1l-0.8,0.9
			c0.3,0.5,0.8,0.8,1.3,1.1s1.2,0.4,1.8,0.4c1.1,0,2-0.3,2.6-0.9S120.1,104.3,120.1,103.2z M118.6,101.1c-0.4,0.8-1.1,1.2-2,1.2
			c-0.7,0-1.2-0.3-1.6-0.8s-0.6-1.3-0.6-2.2c0-1.1,0.2-1.9,0.6-2.4s0.9-0.8,1.6-0.8c0.9,0,1.5,0.4,2,1.2V101.1z"/>
		<path d="M127.5,97.8v5.6h1.4v-5.6c0-2-0.9-3-2.7-3c-1,0-1.9,0.4-2.5,1.2l0-1.1h-1.4v8.5h1.4v-6c0.2-0.4,0.5-0.7,0.8-1
			c0.4-0.2,0.8-0.4,1.2-0.4c0.6,0,1,0.1,1.3,0.4S127.5,97.2,127.5,97.8z"/>
		<path d="M137.3,101.1c0-0.5-0.1-0.8-0.3-1.2s-0.5-0.6-1-0.8s-1-0.4-1.8-0.6s-1.2-0.3-1.5-0.5s-0.4-0.4-0.4-0.8
			c0-0.4,0.1-0.7,0.4-0.9s0.7-0.3,1.2-0.3c0.5,0,0.9,0.1,1.3,0.4s0.5,0.6,0.5,1h1.5c0-0.8-0.3-1.4-0.9-1.9s-1.4-0.7-2.3-0.7
			c-0.9,0-1.7,0.2-2.2,0.7s-0.9,1.1-0.9,1.8c0,0.4,0.1,0.8,0.3,1.1s0.5,0.6,1,0.8s1,0.4,1.7,0.6s1.2,0.3,1.5,0.6s0.4,0.5,0.4,0.9
			c0,0.4-0.2,0.7-0.5,0.9s-0.8,0.3-1.3,0.3c-0.6,0-1.1-0.1-1.4-0.4s-0.6-0.7-0.6-1.2h-1.4c0,0.5,0.1,1,0.4,1.4s0.7,0.8,1.2,1
			s1.1,0.4,1.8,0.4c1,0,1.7-0.2,2.4-0.7S137.3,101.8,137.3,101.1z"/>
		<path d="M144.2,103c0.3,0.4,0.8,0.6,1.5,0.6c0.4,0,0.7-0.1,1.1-0.2v-1.2c-0.3,0.1-0.5,0.1-0.7,0.1c-0.3,0-0.6-0.1-0.7-0.3
			c-0.1-0.2-0.2-0.4-0.2-0.8v-5.2h1.6V95h-1.6v-2h-1.4v2h-1.5v1.1h1.5v5.2C143.7,102.1,143.8,102.6,144.2,103z"/>
		<path d="M151.5,103.6c0.8,0,1.4-0.2,2-0.5s1-0.9,1.4-1.5s0.5-1.4,0.5-2.2v-0.1c0-1.3-0.4-2.4-1.1-3.2s-1.6-1.2-2.8-1.2
			c-0.7,0-1.4,0.2-2,0.5s-1,0.9-1.4,1.5s-0.5,1.4-0.5,2.2v0.1c0,1.3,0.4,2.4,1.1,3.2S150.4,103.6,151.5,103.6z M149.8,96.9
			c0.4-0.6,1-0.9,1.7-0.9c0.7,0,1.3,0.3,1.8,0.9s0.7,1.3,0.7,2.3c0,1-0.2,1.8-0.6,2.4s-1,0.9-1.8,0.9c-0.7,0-1.3-0.3-1.7-0.9
			s-0.7-1.3-0.7-2.3C149.1,98.2,149.4,97.4,149.8,96.9z"/>
		<path d="M169.4,99.8v-7.7h-1.5v7.7c0,0.8-0.2,1.5-0.7,1.9s-1.1,0.7-1.9,0.7c-0.8,0-1.5-0.2-1.9-0.7s-0.7-1.1-0.7-1.9v-7.7h-1.5
			v7.8c0,1.2,0.4,2.1,1.1,2.8s1.7,1,3,1l0.4,0c1.1-0.1,2.1-0.5,2.7-1.1S169.4,100.9,169.4,99.8z"/>
		<path d="M173.1,97.4c0.2-0.4,0.5-0.7,0.8-1c0.4-0.2,0.8-0.4,1.2-0.4c0.6,0,1,0.1,1.3,0.4s0.4,0.7,0.4,1.4v5.6h1.4v-5.6
			c0-2-0.9-3-2.7-3c-1,0-1.9,0.4-2.5,1.2l0-1.1h-1.4v8.5h1.4V97.4z"/>
		<path d="M185.4,103.2c0.5-0.3,0.9-0.6,1.2-1s0.5-0.9,0.5-1.4h-1.4c0,0.5-0.3,0.9-0.6,1.2s-0.8,0.5-1.4,0.5c-0.7,0-1.3-0.3-1.7-0.8
			s-0.6-1.3-0.6-2.2v-0.3c0-1,0.2-1.8,0.6-2.3s1-0.8,1.7-0.8c0.5,0,1,0.2,1.4,0.5s0.6,0.8,0.6,1.3h1.4c0-0.9-0.4-1.6-1-2.2
			s-1.4-0.9-2.4-0.9c-0.8,0-1.4,0.2-2,0.5s-1,0.9-1.3,1.5s-0.5,1.4-0.5,2.2v0.2c0,1.3,0.3,2.4,1,3.2s1.6,1.2,2.7,1.2
			C184.4,103.6,184.9,103.5,185.4,103.2z"/>
		<path d="M194.3,103c0.6-0.4,1-0.9,1.4-1.5c0.3-0.7,0.5-1.4,0.5-2.2v-0.1c0-1.3-0.4-2.4-1.1-3.2s-1.6-1.2-2.8-1.2
			c-0.7,0-1.4,0.2-2,0.5c-0.6,0.4-1,0.9-1.4,1.5c-0.3,0.7-0.5,1.4-0.5,2.2v0.1c0,1.3,0.4,2.4,1.1,3.2s1.6,1.2,2.8,1.2
			C193.1,103.6,193.7,103.4,194.3,103z M190.6,101.6c-0.4-0.6-0.7-1.3-0.7-2.3c0-1.1,0.2-1.9,0.7-2.4s1-0.9,1.7-0.9
			c0.7,0,1.3,0.3,1.8,0.9c0.4,0.6,0.7,1.3,0.7,2.3c0,1-0.2,1.8-0.6,2.4c-0.4,0.6-1,0.9-1.8,0.9C191.6,102.4,191,102.1,190.6,101.6z"
			/>
		<polygon points="202.5,95 200.4,101.5 198.3,95 196.8,95 199.9,103.4 201,103.4 204,95 		"/>
		<path d="M211.9,99c0-1.3-0.3-2.4-0.9-3.1s-1.5-1.1-2.6-1.1c-0.7,0-1.3,0.2-1.9,0.6c-0.6,0.4-1,0.9-1.3,1.5s-0.5,1.4-0.5,2.2v0.3
			c0,1.3,0.4,2.3,1.1,3s1.7,1.1,2.8,1.1c1.4,0,2.5-0.5,3.2-1.6l-0.9-0.7c-0.3,0.3-0.6,0.6-0.9,0.8c-0.4,0.2-0.8,0.3-1.3,0.3
			c-0.7,0-1.3-0.3-1.8-0.8c-0.5-0.5-0.7-1.2-0.7-2h5.7V99z M210.4,98.4h-4.2c0.1-0.8,0.3-1.4,0.7-1.8c0.4-0.4,0.9-0.6,1.5-0.6
			c0.6,0,1.1,0.2,1.4,0.6c0.4,0.4,0.6,1,0.6,1.7V98.4z"/>
		<path d="M215,96l0-1h-1.4v8.5h1.4v-6c0.3-0.8,1-1.2,1.9-1.2c0.3,0,0.5,0,0.7,0.1v-1.3c-0.1-0.1-0.4-0.1-0.6-0.1
			C216.2,94.8,215.5,95.2,215,96z"/>
		<polygon points="101.7,111.9 100.2,111.9 100.2,123.2 107.1,123.2 107.1,122 101.7,122 		"/>
		<path d="M115.1,117.4c0-0.9-0.3-1.5-0.9-2c-0.6-0.5-1.3-0.7-2.3-0.7c-0.6,0-1.2,0.1-1.7,0.3c-0.5,0.2-0.9,0.5-1.2,0.9
			c-0.3,0.4-0.4,0.8-0.4,1.2h1.5c0-0.4,0.2-0.7,0.5-0.9c0.3-0.3,0.8-0.4,1.3-0.4c0.6,0,1,0.1,1.3,0.4c0.3,0.3,0.5,0.7,0.5,1.2v0.7
			h-1.4c-1.2,0-2.2,0.2-2.8,0.7c-0.7,0.5-1,1.2-1,2.1c0,0.7,0.3,1.3,0.8,1.8c0.5,0.5,1.2,0.7,2.1,0.7c0.9,0,1.7-0.3,2.4-1
			c0.1,0.4,0.1,0.7,0.2,0.9h1.5v-0.1c-0.2-0.5-0.3-1.1-0.3-1.9V117.4z M113.6,120.9c-0.2,0.4-0.5,0.7-0.9,0.9s-0.8,0.4-1.3,0.4
			c-0.5,0-0.9-0.1-1.2-0.4c-0.3-0.3-0.5-0.6-0.5-1.1c0-1,0.9-1.6,2.7-1.6h1.1V120.9z"/>
		<path d="M121.1,114.6c-1,0-1.8,0.4-2.4,1.1v-4.5h-1.4v12h1.3l0.1-1c0.6,0.8,1.4,1.1,2.5,1.1c1,0,1.8-0.4,2.4-1.2s0.9-1.8,0.9-3.1
			V119c0-1.3-0.3-2.4-0.9-3.2S122.2,114.6,121.1,114.6z M122.4,121.4c-0.4,0.5-0.9,0.8-1.6,0.8c-0.9,0-1.6-0.4-2.1-1.3v-3.7
			c0.4-0.9,1.1-1.3,2.1-1.3c0.7,0,1.3,0.3,1.6,0.8c0.4,0.5,0.6,1.3,0.6,2.3C123,120,122.8,120.8,122.4,121.4z"/>
		<path d="M129.7,114.6c-0.7,0-1.4,0.2-2,0.5c-0.6,0.4-1,0.9-1.4,1.5c-0.3,0.7-0.5,1.4-0.5,2.2v0.1c0,1.3,0.4,2.4,1.1,3.2
			s1.6,1.2,2.8,1.2c0.8,0,1.4-0.2,2-0.5s1-0.9,1.4-1.5c0.3-0.7,0.5-1.4,0.5-2.2V119c0-1.3-0.4-2.4-1.1-3.2S130.9,114.6,129.7,114.6z
			 M131.5,121.3c-0.4,0.6-1,0.9-1.8,0.9c-0.7,0-1.3-0.3-1.7-0.9c-0.4-0.6-0.7-1.3-0.7-2.3c0-1.1,0.2-1.9,0.7-2.4s1-0.9,1.7-0.9
			c0.7,0,1.3,0.3,1.8,0.9c0.4,0.6,0.7,1.3,0.7,2.3C132.1,120,131.9,120.8,131.5,121.3z"/>
		<path d="M136.8,115.8l0-1h-1.4v8.5h1.4v-6c0.3-0.8,1-1.2,1.9-1.2c0.3,0,0.5,0,0.7,0.1v-1.3c-0.1-0.1-0.4-0.1-0.6-0.1
			C137.9,114.6,137.3,115,136.8,115.8z"/>
		<polygon points="144,113.1 147.7,113.1 147.7,123.2 149.2,123.2 149.2,113.1 152.8,113.1 152.8,111.9 144,111.9 		"/>
		<path d="M154.4,115.8l0-1H153v8.5h1.4v-6c0.3-0.8,1-1.2,1.9-1.2c0.3,0,0.5,0,0.7,0.1v-1.3c-0.1-0.1-0.4-0.1-0.6-0.1
			C155.5,114.6,154.9,115,154.4,115.8z"/>
		<path d="M164.8,117.4c0-0.9-0.3-1.5-0.9-2s-1.3-0.7-2.3-0.7c-0.6,0-1.2,0.1-1.7,0.3s-0.9,0.5-1.2,0.9s-0.4,0.8-0.4,1.2h1.5
			c0-0.4,0.2-0.7,0.5-0.9s0.8-0.4,1.3-0.4c0.6,0,1,0.1,1.3,0.4s0.5,0.7,0.5,1.2v0.7h-1.4c-1.2,0-2.2,0.2-2.8,0.7s-1,1.2-1,2.1
			c0,0.7,0.3,1.3,0.8,1.8s1.2,0.7,2.1,0.7c0.9,0,1.7-0.3,2.4-1c0.1,0.4,0.1,0.7,0.2,0.9h1.5v-0.1c-0.2-0.5-0.3-1.1-0.3-1.9V117.4z
			 M163.4,120.9c-0.2,0.4-0.5,0.7-0.9,0.9s-0.8,0.4-1.3,0.4c-0.5,0-0.9-0.1-1.2-0.4s-0.5-0.6-0.5-1.1c0-1,0.9-1.6,2.7-1.6h1.1V120.9
			z"/>
		<path d="M168.3,111.8c-0.5,0.5-0.7,1.2-0.7,2.1v0.9h-1.3v1.1h1.3v7.3h1.4v-7.3h1.8v-1.1H169v-0.9c0-0.5,0.1-0.9,0.4-1.2
			s0.6-0.4,1.1-0.4c0.3,0,0.5,0,0.8,0.1l0.1-1.2c-0.3-0.1-0.7-0.1-1-0.1C169.4,111.1,168.7,111.3,168.3,111.8z"/>
		<path d="M174,111.8c-0.5,0.5-0.7,1.2-0.7,2.1v0.9H172v1.1h1.3v7.3h1.4v-7.3h1.8v-1.1h-1.8v-0.9c0-0.5,0.1-0.9,0.4-1.2
			c0.3-0.3,0.6-0.4,1.1-0.4c0.3,0,0.5,0,0.8,0.1l0.1-1.2c-0.3-0.1-0.7-0.1-1-0.1C175.2,111.1,174.5,111.3,174,111.8z"/>
		<rect x="178.4" y="114.8" width="1.4" height="8.5"/>
		<path d="M179.1,111.7c-0.3,0-0.5,0.1-0.6,0.2s-0.2,0.4-0.2,0.6s0.1,0.4,0.2,0.6s0.4,0.2,0.6,0.2s0.5-0.1,0.6-0.2s0.2-0.4,0.2-0.6
			s-0.1-0.4-0.2-0.6S179.4,111.7,179.1,111.7z"/>
		<path d="M183.7,116.6c0.4-0.5,1-0.8,1.7-0.8c0.5,0,1,0.2,1.4,0.5s0.6,0.8,0.6,1.3h1.4c0-0.9-0.4-1.6-1-2.2s-1.4-0.9-2.4-0.9
			c-0.8,0-1.4,0.2-2,0.5s-1,0.9-1.3,1.5s-0.5,1.4-0.5,2.2v0.2c0,1.3,0.3,2.4,1,3.2s1.6,1.2,2.7,1.2c0.6,0,1.1-0.1,1.6-0.4
			s0.9-0.6,1.2-1s0.5-0.9,0.5-1.4h-1.4c0,0.5-0.3,0.9-0.6,1.2s-0.8,0.5-1.4,0.5c-0.7,0-1.3-0.3-1.7-0.8s-0.6-1.3-0.6-2.2v-0.3
			C183.1,117.9,183.3,117.1,183.7,116.6z"/>
		<polygon points="197.1,114.8 195.3,114.8 192.7,117.6 191.9,118.5 191.9,111.2 190.5,111.2 190.5,123.2 191.9,123.2 191.9,120.3 
			192.8,119.3 195.8,123.2 197.4,123.2 193.8,118.3 		"/>
		<rect x="198.8" y="114.8" width="1.4" height="8.5"/>
		<path d="M199.5,111.7c-0.3,0-0.5,0.1-0.6,0.2c-0.1,0.2-0.2,0.4-0.2,0.6s0.1,0.4,0.2,0.6c0.1,0.2,0.4,0.2,0.6,0.2s0.5-0.1,0.6-0.2
			c0.1-0.2,0.2-0.4,0.2-0.6s-0.1-0.4-0.2-0.6C200,111.8,199.8,111.7,199.5,111.7z"/>
		<path d="M206.4,114.6c-1,0-1.9,0.4-2.5,1.2l0-1.1h-1.4v8.5h1.4v-6c0.2-0.4,0.5-0.7,0.8-1s0.8-0.4,1.2-0.4c0.6,0,1,0.1,1.3,0.4
			s0.4,0.7,0.4,1.4v5.6h1.4v-5.6C209.1,115.6,208.2,114.6,206.4,114.6z"/>
		<path d="M216.6,115.7c-0.6-0.7-1.4-1.1-2.4-1.1c-1,0-1.8,0.4-2.4,1.2s-0.9,1.8-0.9,3.1c0,1.4,0.3,2.5,0.9,3.3s1.4,1.2,2.4,1.2
			c1,0,1.8-0.3,2.4-1v0.7c0,0.7-0.2,1.3-0.6,1.7s-0.9,0.6-1.6,0.6c-0.9,0-1.7-0.4-2.3-1.1l-0.8,0.9c0.3,0.5,0.8,0.8,1.3,1.1
			s1.2,0.4,1.8,0.4c1.1,0,2-0.3,2.6-0.9s1-1.5,1-2.6v-8.2h-1.3L216.6,115.7z M216.6,120.9c-0.4,0.8-1.1,1.2-2,1.2
			c-0.7,0-1.2-0.3-1.6-0.8s-0.6-1.3-0.6-2.2c0-1.1,0.2-1.9,0.6-2.4s0.9-0.8,1.6-0.8c0.9,0,1.5,0.4,2,1.2V120.9z"/>
		<path d="M45.6,45.6c0,1.7,0.5,3,1.5,4c1,1,2.3,1.4,4,1.4h29.9v-6H52.4V28.2h26.4v-5.9H52.4V6.6h28.5v-6H45.6V45.6z"/>
		<path d="M109.6,51.6c4.7,0,8.4-1.1,11.2-3.3c2.8-2.2,4.2-5.1,4.2-8.8v-4.7c0-2.9-1.1-5.4-3.2-7.3c-2.1-1.9-5.2-3.3-9.2-3.9
			l-13-2.2c-2-0.4-3.6-1.1-4.6-2.1s-1.6-2.3-1.6-3.8v-3.2c0-1.9,0.8-3.3,2.3-4.4s3.5-1.6,5.9-1.6h8.1c2.3,0,4.2,0.7,5.5,2.2
			c1.4,1.5,2.1,3.4,2.1,5.8h6.8c0-2.8-0.6-5.2-1.8-7.4c-1.2-2.1-2.9-3.8-5.1-5c-2.2-1.2-4.7-1.8-7.5-1.8h-8.1
			c-4.5,0-8.1,1.1-10.9,3.3C88,5.5,86.6,8.4,86.6,12v4c0,3,1,5.5,3.1,7.6c2.1,2,5.1,3.3,8.9,4l13.1,2.2c2.1,0.3,3.7,1,4.8,2
			c1.1,1,1.7,2.3,1.7,3.7v3.9c0,1.9-0.8,3.4-2.4,4.5c-1.6,1.1-3.7,1.7-6.3,1.7h-8c-2.6,0-4.8-0.8-6.4-2.5c-1.6-1.7-2.4-3.9-2.4-6.8
			H86c0,4.7,1.4,8.4,4.2,11.2c2.8,2.8,6.5,4.2,11.2,4.2H109.6z"/>
		<path d="M139.3,49.4c2.5,1.4,5.3,2.1,8.6,2.1h7.7c3.3,0,6.1-0.7,8.6-2.1c2.5-1.4,4.4-3.4,5.7-6c1.3-2.6,2-5.6,2-8.9V0.6h-6.8v33.9
			c0,3.3-0.9,5.9-2.6,7.9c-1.8,2-4,3-6.9,3h-7.7c-2.8,0-5.1-1-6.9-3c-1.8-2-2.6-4.7-2.6-7.9V0.6h-6.8v33.9c0,3.4,0.7,6.3,2,8.9
			C134.9,46,136.8,48,139.3,49.4z"/>
		<path d="M185.8,51h28.7v-6h-27.4V0.6h-6.8v45.1c0,1.6,0.5,2.9,1.5,3.9C182.8,50.5,184.1,51,185.8,51z"/>
		<polygon points="209.9,0.6 209.9,6.6 225.9,6.6 225.9,51 232.8,51 232.8,6.6 248.7,6.6 248.7,0.6 		"/>
		<path d="M29.5,28.5L29.5,28.5c2.7-0.9,4.8-2.3,6.4-4.2c1.6-1.9,2.3-4.1,2.3-6.6v-5.2c0-3.6-1.2-6.4-3.6-8.6
			c-2.4-2.2-5.5-3.3-9.4-3.3h-9.9H0v6v9.3l9.3-9.3h5.4h10.4c1.9,0,3.4,0.5,4.5,1.6c1.2,1.1,1.7,2.4,1.7,4.2v5.3
			c0,2.1-0.7,3.8-2.2,5.1c-1.5,1.3-3.4,1.9-5.8,1.9h-8.7H6.8H0V51h6.8V30.7h13.8c1.9,0,3.5,0.6,5,1.9c1.5,1.3,2.5,3.1,3.2,5.3
			l3.9,13h7.1l-4-13.2C34.5,33.3,32.4,30.2,29.5,28.5z"/>
	</g>
</g>
</svg>
