<?xml version="1.0" encoding="utf-8"?>
<!-- Generator: Adobe Illustrator 23.0.3, SVG Export Plug-In . SVG Version: 6.00 Build 0)  -->
<svg version="1.1" xmlns="http://www.w3.org/2000/svg" xmlns:xlink="http://www.w3.org/1999/xlink" x="0px" y="0px" width="248.7px"
	 height="51.6px" viewBox="0 0 248.7 51.6" style="enable-background:new 0 0 248.7 51.6;" xml:space="preserve">
<g id="Layer_1">
</g>
<g id="Layer_2">
</g>
<g id="Layer_3">
	<g>
		<path d="M45.6,45.6c0,1.7,0.5,3,1.5,4c1,1,2.3,1.4,4,1.4h29.9v-6H52.4V28.2h26.4v-5.9H52.4V6.6h28.5v-6H45.6V45.6z"/>
		<path d="M112.7,23.5l-13-2.2c-2-0.4-3.6-1.1-4.6-2.1s-1.6-2.3-1.6-3.8v-3.2c0-1.9,0.8-3.3,2.3-4.4s3.5-1.6,5.9-1.6h8.1
			c2.3,0,4.2,0.7,5.5,2.2c1.4,1.5,2.1,3.4,2.1,5.8h6.8c0-2.8-0.6-5.2-1.8-7.4c-1.2-2.1-2.9-3.8-5.1-5c-2.2-1.2-4.7-1.8-7.5-1.8h-8.1
			c-4.5,0-8.1,1.1-10.9,3.3C88,5.5,86.6,8.4,86.6,12v4c0,3,1,5.5,3.1,7.6c2.1,2,5.1,3.3,8.9,4l13.1,2.2c2.1,0.3,3.7,1,4.8,2
			c1.1,1,1.7,2.3,1.7,3.7v3.9c0,1.9-0.8,3.4-2.4,4.5c-1.6,1.1-3.7,1.7-6.3,1.7h-8c-2.6,0-4.8-0.8-6.4-2.5c-1.6-1.7-2.4-3.9-2.4-6.8
			H86c0,4.7,1.4,8.4,4.2,11.2c2.8,2.8,6.5,4.2,11.2,4.2h8.3c4.7,0,8.4-1.1,11.2-3.3c2.8-2.2,4.2-5.1,4.2-8.8v-4.7
			c0-2.9-1.1-5.4-3.2-7.3C119.7,25.5,116.7,24.2,112.7,23.5z"/>
		<path d="M165.1,34.5c0,3.3-0.9,5.9-2.6,7.9c-1.8,2-4,3-6.9,3h-7.7c-2.8,0-5.1-1-6.9-3c-1.8-2-2.6-4.7-2.6-7.9V0.6h-6.8v33.9
			c0,3.4,0.7,6.3,2,8.9c1.3,2.6,3.3,4.6,5.7,6c2.5,1.4,5.3,2.1,8.6,2.1h7.7c3.3,0,6.1-0.7,8.6-2.1c2.5-1.4,4.4-3.4,5.7-6
			c1.3-2.6,2-5.6,2-8.9V0.6h-6.8V34.5z"/>
		<path d="M187.2,0.6h-6.8v45.1c0,1.6,0.5,2.9,1.5,3.9c1,1,2.3,1.4,4,1.4h28.7v-6h-27.4V0.6z"/>
		<polygon points="209.9,0.6 209.9,6.6 225.9,6.6 225.9,51 232.8,51 232.8,6.6 248.7,6.6 248.7,0.6 		"/>
		<path d="M29.5,28.5L29.5,28.5c2.7-0.9,4.8-2.3,6.4-4.2c1.6-1.9,2.3-4.1,2.3-6.6v-5.2c0-3.6-1.2-6.4-3.6-8.6
			c-2.4-2.2-5.5-3.3-9.4-3.3h-9.9H0v6v9.3l9.3-9.3h5.4h10.4c1.9,0,3.4,0.5,4.5,1.6c1.2,1.1,1.7,2.4,1.7,4.2v5.3
			c0,2.1-0.7,3.8-2.2,5.1c-1.5,1.3-3.4,1.9-5.8,1.9h-8.7H6.8H0V51h6.8V30.7h13.8c1.9,0,3.5,0.6,5,1.9c1.5,1.3,2.5,3.1,3.2,5.3
			l3.9,13h7.1l-4-13.2C34.5,33.3,32.4,30.2,29.5,28.5z"/>
	</g>
</g>
</svg>
