<?xml version="1.0" encoding="utf-8"?>
<!-- Generator: Adobe Illustrator 23.0.3, SVG Export Plug-In . SVG Version: 6.00 Build 0)  -->
<svg version="1.1" id="Layer_1" xmlns="http://www.w3.org/2000/svg" xmlns:xlink="http://www.w3.org/1999/xlink" x="0px" y="0px"
	 width="248.8px" height="51.7px" viewBox="0 0 248.8 51.7" style="enable-background:new 0 0 248.8 51.7;" xml:space="preserve">
<style type="text/css">
	.st0{fill:#C6D5E3;}
</style>
<g>
	<path class="st0" d="M45.7,45.7c0,1.7,0.5,3,1.5,4c1,0.9,2.3,1.4,4,1.4h29.9v-6H52.6V28.3H79v-5.9H52.6V6.7h28.5v-6H45.7V45.7z"/>
	<path class="st0" d="M121.9,27.4c-2.2-1.9-5.2-3.2-9.2-3.9l-13-2.2c-2-0.4-3.5-1.1-4.6-2.1c-1.1-1-1.6-2.3-1.6-3.8v-3.2
		c0-1.8,0.8-3.3,2.3-4.4c1.5-1.1,3.5-1.6,5.9-1.6h8.1c2.3,0,4.1,0.7,5.5,2.2c1.4,1.5,2.1,3.4,2.1,5.8h6.8c0-2.8-0.6-5.3-1.8-7.4
		c-1.2-2.2-2.9-3.8-5.1-5S112.6,0,109.8,0h-8.1c-4.5,0-8.1,1.1-10.9,3.3c-2.7,2.2-4.1,5.1-4.1,8.7v4c0,3.1,1,5.6,3.1,7.6
		c2.1,2.1,5.1,3.4,8.9,4l13.1,2.2c2.1,0.3,3.7,1,4.8,2c1.1,1,1.7,2.2,1.7,3.7v3.9c0,1.9-0.8,3.4-2.4,4.5c-1.5,1.1-3.7,1.7-6.3,1.7
		h-8c-2.7,0-4.8-0.8-6.4-2.5s-2.4-4-2.4-6.8h-6.7c0,4.7,1.4,8.4,4.2,11.2c2.8,2.8,6.5,4.2,11.2,4h8.2c4.7,0,8.4-1.1,11.2-3.3
		c2.8-2.2,4.2-5.2,4.2-8.8v-4.7C125.1,31.8,124,29.3,121.9,27.4z"/>
	<path class="st0" d="M165.2,34.7c0,3.2-0.8,5.9-2.6,7.9c-1.8,2-4.1,3-6.9,3H148c-2.9,0-5.1-1-6.9-3c-1.7-2-2.6-4.6-2.6-7.9V0.8
		h-6.8v33.9c0,3.3,0.7,6.3,2,8.9c1.3,2.6,3.2,4.6,5.7,6c2.5,1.4,5.4,2.1,8.6,2.1h7.7c3.3,0,6.1-0.7,8.6-2.1c2.4-1.4,4.4-3.4,5.7-6
		c1.3-2.6,2-5.5,2-8.9V0.8h-6.8V34.7z"/>
	<path class="st0" d="M187.2,0.7h-6.8v45.1c0,1.6,0.5,2.9,1.5,3.9c1,0.9,2.4,1.4,4,1.4h28.7v-6h-27.4V0.7z"/>
	<polygon class="st0" points="210,0.7 210,6.7 226,6.7 226,51.1 232.8,51.1 232.8,6.7 248.8,6.7 248.8,0.7 	"/>
	<path class="st0" d="M29.7,28.7L29.7,28.7c2.7-1,4.8-2.4,6.4-4.3c1.6-1.9,2.3-4.1,2.3-6.6v-5.2c0-3.6-1.2-6.4-3.6-8.6
		c-2.4-2.2-5.5-3.3-9.4-3.3h-9.9H0.1v6v9.4l9.4-9.4h5.3h10.4c1.9,0,3.4,0.5,4.5,1.6c1.2,1.1,1.7,2.4,1.7,4.2v5.3
		c0,2.1-0.7,3.8-2.2,5.1s-3.4,1.9-5.8,1.9h-8.7H6.8H0v26.3h6.8V30.9h13.8c1.9,0,3.5,0.6,5,1.9c1.5,1.3,2.5,3.1,3.2,5.3l3.9,13h7.1
		L36,37.9C34.6,33.4,32.5,30.4,29.7,28.7z"/>
</g>
</svg>
