<?xml version="1.0" encoding="UTF-8"?>
<svg width="69px" height="59px" viewBox="0 0 69 59" version="1.1" xmlns="http://www.w3.org/2000/svg" xmlns:xlink="http://www.w3.org/1999/xlink">
    <!-- Generator: Sketch 52.6 (67491) - http://www.bohemiancoding.com/sketch -->
    <title>Group 4</title>
    <desc>Created with Sketch.</desc>
    <g id="Page-1" stroke="none" stroke-width="1" fill="none" fill-rule="evenodd">
        <g id="Assess-2" transform="translate(-686.000000, -197.000000)" fill-rule="nonzero">
            <g id="Group-4" transform="translate(686.000000, 197.000000)">
                <polygon id="Triangle" fill="#DEE7EF" points="34.5 2.07017544 67.9545455 55.8947368 1.04545455 55.8947368"></polygon>
                <g id="danger" fill="#19568D">
                    <path d="M68.1110106,49.5729773 L39.8083427,2.97608844 C38.6932919,1.14039909 36.6592743,0 34.4999247,0 C32.3405751,0 30.3065575,1.14039909 29.191372,2.97622222 L0.88883875,49.5729773 C-0.26354211,51.4703424 -0.297637813,53.8474671 0.799758672,55.7766735 C1.89742469,57.7058798 3.96553797,58.9043424 6.19725672,58.9043424 L62.8025927,58.9043424 C65.0343114,58.9043424 67.1025595,57.7058798 68.2002255,55.7765397 C69.297622,53.8471995 69.2635262,51.4700748 68.1110106,49.5729773 Z M64.2885184,53.5836395 C63.9863739,54.1146395 63.4169891,54.4446916 62.8025927,54.4446916 L6.19725672,54.4446916 C5.58286023,54.4446916 5.01347547,54.1147732 4.7114657,53.5837732 C4.40932117,53.0526395 4.41875477,52.3981542 4.73585828,51.8759841 L33.038661,5.27909524 C33.3456571,4.77378231 33.9056083,4.45978458 34.5000595,4.45978458 C35.0943759,4.45978458 35.654327,4.77378231 35.9613231,5.27909524 L64.2638563,51.8759841 C64.5812294,52.398288 64.590663,53.0526395 64.2885184,53.5836395 Z" id="Shape"></path>
                    <path d="M34.577625,18.3287982 C32.8687969,18.3287982 31.5351562,19.2390839 31.5351562,20.8528209 C31.5351562,25.7764444 32.1185566,32.8516281 32.1185566,37.7753855 C32.1186914,39.058 33.2441191,39.5958231 34.5777598,39.5958231 C35.5779902,39.5958231 36.9950508,39.058 36.9950508,37.7753855 C36.9950508,32.8517619 37.5784512,25.7765782 37.5784512,20.8528209 C37.5784512,19.2392177 36.203168,18.3287982 34.577625,18.3287982 Z" id="Shape"></path>
                    <path d="M34.6096992,42.5442177 C32.7759434,42.5442177 31.4003906,43.9923265 31.4003906,45.7302177 C31.4003906,47.4266349 32.7758086,48.9162177 34.6096992,48.9162177 C36.3185273,48.9162177 37.7773652,47.4266349 37.7773652,45.7302177 C37.7773652,43.9923265 36.3183926,42.5442177 34.6096992,42.5442177 Z" id="Shape"></path>
                </g>
            </g>
        </g>
    </g>
</svg>